# xmcd CD database file
#
# Track frame offsets:
#	150
#	23753
#	45650
#	70850
#	90230
#	115062
#	127512
#	143712
#	167271
#	191246
#
# Disc length: 2777 seconds
#
# Revision: 0
# Processed by: cddbd v1.5.1PL0 Copyright (c) Steve Scherf et al.
# Submitted via: CDex 1.51
#
DISCID=720ad70a
DTITLE=ピコピコ安全県 - 電色アジアン
DYEAR=2004
DGENRE=Techno
TTITLE0=電色アジアン
TTITLE1=カッカジョセヨ
TTITLE2=幻想亜細亜奇談
TTITLE3=マクロビオツス
TTITLE4=キラボシバクフ
TTITLE5=荒波日本海
TTITLE6=はしやすめ
TTITLE7=スリーアローズ
TTITLE8=蛍の木
TTITLE9=二度栗山安美円斗
EXTD=YEAR: 2004
EXTT0=
EXTT1=
EXTT2=
EXTT3=
EXTT4=
EXTT5=
EXTT6=
EXTT7=
EXTT8=
EXTT9=
PLAYORDER=
